<?xml version="1.0" standalone="no"?>
<!DOCTYPE svg PUBLIC "-//W3C//DTD SVG 20010904//EN"
 "http://www.w3.org/TR/2001/REC-SVG-20010904/DTD/svg10.dtd">
<svg version="1.0" xmlns="http://www.w3.org/2000/svg"
 width="3179.000000pt" height="1891.000000pt" viewBox="0 0 3179.000000 1891.000000"
 preserveAspectRatio="xMidYMid meet">

<g transform="translate(0.000000,1891.000000) scale(0.100000,-0.100000)"
fill="#000000" stroke="none">
<path d="M23032 12199 c-50 -68 -90 -124 -88 -126 7 -7 118 32 199 70 84 39
88 42 85 71 -3 25 -10 32 -45 43 -29 10 -44 22 -50 40 -8 23 -14 18 -101 -98z"/>
<path d="M23295 11744 c-147 -23 -289 -77 -414 -158 -69 -44 -81 -47 -81 -17
0 8 -12 27 -27 43 -23 24 -25 31 -15 53 14 31 15 57 2 33 -6 -9 -22 -65 -37
-125 -24 -95 -28 -126 -27 -263 1 -193 18 -297 119 -710 92 -374 115 -505 122
-682 4 -97 9 -138 18 -138 6 0 46 53 88 118 95 146 185 259 358 449 172 187
264 295 337 391 73 97 130 182 108 161 -16 -14 -21 -15 -45 -3 -15 7 -38 25
-51 39 -13 14 -28 25 -34 25 -8 0 -10 65 -8 211 2 119 -1 255 -8 310 -11 95
-12 99 -53 142 -66 69 -88 97 -77 97 6 0 10 6 10 14 0 9 -21 15 -67 19 -88 9
-110 8 -218 -9z"/>
<path d="M22070 11638 c10 -15 8 -18 -14 -24 -14 -3 -26 -10 -26 -15 0 -5 -16
-9 -36 -9 -19 0 -33 -4 -30 -9 3 -5 -6 -12 -20 -15 -15 -4 -33 -14 -41 -21 -8
-8 -23 -15 -32 -15 -10 0 -24 -7 -31 -15 -7 -8 -27 -17 -46 -21 -19 -3 -31
-10 -28 -15 3 -5 0 -9 -6 -9 -6 0 -9 -3 -6 -8 2 -4 -30 -18 -72 -31 -89 -27
-143 -52 -136 -62 2 -4 -17 -11 -43 -15 -58 -8 -69 -14 -52 -25 9 -6 1 -9 -25
-9 -30 0 -37 -3 -32 -15 4 -12 -4 -15 -37 -16 -23 0 -36 -3 -29 -6 26 -10 10
-23 -30 -23 -25 0 -38 -4 -31 -8 8 -5 -11 -13 -47 -20 -34 -7 -58 -17 -55 -22
4 -6 -5 -10 -19 -10 -16 0 -27 7 -31 21 -4 11 -9 19 -11 16 -8 -7 57 -220 97
-321 61 -151 62 -154 55 -171 -4 -12 -14 -14 -38 -10 -38 6 -90 -6 -95 -22 -5
-14 180 -174 255 -222 28 -18 52 -35 52 -37 0 -2 -17 3 -37 12 -232 99 -251
104 -310 98 -74 -9 -94 -19 -90 -47 2 -12 2 -16 0 -9 -5 15 -18 15 -46 1 -101
-53 -103 -186 -4 -286 22 -24 35 -43 29 -43 -7 0 -18 -13 -23 -30 -6 -16 -15
-30 -21 -30 -5 0 -6 -4 -3 -10 3 -5 -3 -15 -15 -22 -11 -7 -20 -18 -20 -24 0
-6 -7 -17 -15 -24 -21 -17 -20 -44 1 -36 15 6 15 4 3 -13 -66 -91 -80 -116
-77 -140 3 -32 -9 -54 -25 -45 -7 3 3 -8 21 -25 33 -32 35 -51 4 -51 -9 -1
-69 -18 -132 -40 -63 -22 -105 -38 -93 -36 13 2 26 0 29 -5 3 -5 0 -9 -6 -9
-7 0 -10 -6 -7 -12 2 -7 -3 -21 -11 -31 -14 -16 -14 -19 1 -34 15 -15 15 -17
-1 -30 -12 -10 -14 -16 -5 -19 7 -3 21 -13 31 -22 10 -9 16 -16 13 -14 -10 5
-62 -131 -58 -150 5 -16 2 -19 -16 -14 -11 3 -40 -3 -64 -14 l-43 -19 25 33
c42 55 84 179 64 192 -9 5 -6 95 4 124 3 8 8 34 11 57 6 39 4 43 -23 58 -17 8
-38 15 -47 15 -9 0 -23 8 -31 18 -13 15 -13 15 -3 -5 6 -13 20 -23 30 -23 11
0 20 -4 20 -10 0 -5 -4 -10 -10 -10 -5 0 -10 -6 -10 -14 0 -8 -6 -17 -12 -19
-10 -4 -10 -8 1 -16 24 -16 -2 -59 -47 -78 -162 -67 -467 -224 -534 -274 l-23
-18 51 -49 c80 -77 130 -97 244 -97 60 1 110 6 136 16 l41 15 -5 -25 c-3 -14
-11 -34 -19 -43 -9 -10 -14 -29 -11 -47 4 -26 1 -30 -26 -35 -28 -5 -426 -46
-447 -46 -5 0 -3 -15 5 -34 13 -31 12 -41 -3 -90 -9 -30 -24 -63 -33 -73 -20
-23 -12 -43 17 -43 25 0 302 56 329 66 11 4 10 -3 -5 -33 -22 -43 -18 -76 12
-109 l20 -21 -38 -7 c-21 -3 -57 -6 -80 -6 -41 0 -42 -1 -48 -37 -3 -21 -9
-49 -13 -62 -8 -27 -5 -26 -286 -91 -88 -21 -134 -35 -125 -41 7 -4 11 -9 9
-11 -3 -2 -31 -16 -62 -31 -150 -75 -247 -265 -236 -461 12 -201 119 -337 299
-381 55 -14 96 -17 183 -12 106 5 112 4 139 -19 37 -31 90 -41 120 -21 12 8
30 36 41 62 16 39 17 50 6 71 -7 13 -26 29 -42 36 -32 15 -34 22 -13 73 9 20
26 76 39 123 l23 87 42 8 c64 13 72 1 70 -102 -2 -103 20 -160 84 -218 23 -21
42 -40 43 -43 0 -3 7 -18 15 -34 11 -23 11 -30 1 -34 -6 -2 -12 -16 -12 -30 0
-15 -9 -38 -20 -52 l-20 -25 16 39 c20 49 15 77 -15 92 -39 20 -68 -2 -117
-85 -43 -73 -45 -75 -79 -72 -33 2 -104 -30 -105 -47 -1 -4 -11 -19 -23 -35
l-23 -27 -39 20 c-73 37 -142 20 -161 -40 -13 -39 -5 -72 27 -106 17 -18 18
-25 8 -50 -12 -33 -16 -144 -5 -190 7 -30 5 -31 -30 -37 -20 -3 -44 -13 -54
-22 -16 -14 -17 -10 -23 77 -8 116 -28 191 -77 293 -146 300 -444 476 -775
460 -108 -6 -182 -26 -292 -81 -277 -138 -442 -404 -443 -712 0 -446 350 -803
790 -804 138 -1 230 20 356 81 192 94 330 254 408 474 5 17 9 15 31 -11 28
-34 36 -95 10 -86 -42 17 23 -72 76 -103 38 -23 36 -43 -5 -70 -35 -22 -76
-93 -76 -131 0 -42 22 -71 66 -88 41 -16 45 -15 70 1 14 9 33 29 42 44 14 25
18 26 49 17 30 -10 33 -15 33 -49 0 -46 18 -82 62 -123 88 -84 209 -97 283
-33 l35 31 53 -27 c60 -29 158 -36 212 -15 76 29 125 108 125 203 0 51 4 68
20 82 16 14 24 15 51 6 110 -38 236 43 322 206 31 60 34 70 22 87 -13 17 -18
17 -45 6 -36 -15 -62 -2 -109 58 -17 21 -53 51 -80 67 -38 23 -51 37 -56 61
-3 18 -17 48 -30 68 -30 44 -30 47 -5 69 24 20 27 73 5 104 -18 25 -86 47
-115 38 -11 -4 -20 -2 -20 2 0 5 42 20 93 33 283 72 554 177 739 286 103 60
146 33 74 -47 -33 -36 -56 -91 -56 -135 0 -12 -9 -41 -20 -65 -11 -24 -20 -64
-20 -89 0 -45 27 -111 47 -117 9 -3 73 140 73 161 0 3 41 112 91 243 l91 238
77 80 c42 44 99 111 126 149 28 37 58 78 68 90 16 18 16 17 -1 -14 -11 -19
-45 -93 -76 -165 -30 -71 -91 -211 -135 -310 l-79 -180 38 -3 c34 -3 39 -6 44
-36 15 -77 119 -155 229 -170 26 -4 47 -10 47 -14 -1 -4 -49 -101 -108 -217
l-107 -210 -65 -7 c-114 -12 -248 -62 -347 -130 -100 -68 -235 -231 -285 -346
-30 -66 -58 -216 -58 -307 0 -83 20 -230 38 -276 9 -23 6 -32 -30 -75 -23 -27
-49 -68 -60 -91 -10 -24 -24 -43 -30 -43 -6 0 -30 -18 -54 -40 -24 -22 -51
-40 -59 -40 -22 0 -86 28 -107 47 -16 15 -21 14 -59 -13 -122 -84 -233 -293
-217 -406 4 -26 -3 -36 -57 -84 -463 -409 -1066 -758 -1703 -985 -34 -12 -61
-23 -59 -25 2 -2 25 3 51 12 41 14 50 14 57 3 19 -30 9 -47 -36 -65 -25 -9
-44 -19 -42 -21 11 -10 449 171 677 279 334 159 713 403 956 615 l72 62 24
-47 c46 -89 160 -146 244 -123 31 9 43 20 59 53 11 23 33 51 48 62 27 20 29
20 58 4 l30 -17 6 29 c5 28 9 30 50 30 81 0 130 42 221 191 l58 96 -29 17
c-28 16 -29 19 -23 64 l6 48 -87 86 c-91 89 -141 143 -111 120 9 -7 18 -9 20
-5 3 4 3 2 2 -4 -8 -32 22 -6 87 77 39 49 74 90 78 90 3 0 19 -26 36 -58 18
-34 64 -91 117 -145 48 -48 83 -85 77 -82 -5 4 -9 0 -9 -7 0 -8 -16 -29 -35
-48 -26 -25 -33 -39 -29 -57 5 -17 -4 -34 -35 -69 -28 -32 -39 -53 -36 -66 4
-12 -7 -33 -34 -66 -29 -34 -39 -54 -35 -68 4 -16 -5 -33 -34 -63 -30 -32 -38
-47 -34 -67 3 -20 -4 -34 -31 -62 -27 -28 -35 -43 -31 -59 5 -16 -5 -35 -35
-70 -28 -34 -39 -55 -35 -69 4 -15 -2 -27 -18 -40 -14 -11 -23 -25 -21 -31 2
-6 -4 -20 -14 -30 -10 -10 -17 -28 -15 -39 4 -25 -24 -57 -40 -47 -8 4 -9 -58
-5 -217 l7 -222 -33 -31 c-573 -538 -1180 -886 -2007 -1152 -231 -74 -425
-127 -580 -160 -160 -33 -279 -56 -390 -75 -63 -10 -95 -18 -70 -17 41 2 47
-1 62 -28 l16 -30 -66 -12 -67 -12 65 5 c222 18 738 137 1085 251 783 258
1342 576 1907 1085 42 38 78 68 80 68 3 0 11 -44 18 -98 44 -355 154 -776 266
-1021 l35 -75 65 65 c110 107 361 376 479 514 748 867 1326 1858 1615 2765 34
107 65 202 68 210 3 9 9 0 14 -22 13 -48 81 -126 131 -148 26 -12 60 -44 102
-98 172 -217 369 -386 581 -497 60 -32 67 -39 20 -19 -17 7 -52 -29 -241 -246
-27 -30 -59 -65 -72 -77 -12 -12 -23 -24 -23 -27 0 -3 -15 -20 -32 -39 -18
-18 -64 -68 -103 -111 -38 -43 -81 -90 -95 -105 -14 -14 -56 -62 -94 -106 -39
-44 -83 -92 -98 -107 -15 -15 -28 -30 -28 -33 0 -3 -11 -16 -23 -28 -13 -12
-45 -47 -72 -77 -76 -87 -168 -190 -195 -219 -14 -14 -59 -64 -99 -111 -41
-47 -85 -95 -98 -107 -13 -12 -23 -25 -23 -28 0 -3 -10 -16 -23 -28 -13 -12
-63 -67 -112 -122 -48 -55 -99 -110 -112 -122 -12 -12 -23 -25 -23 -28 0 -3
-11 -16 -24 -28 -13 -12 -56 -60 -95 -106 -40 -46 -85 -96 -99 -111 -15 -15
-36 -38 -47 -51 -65 -76 -202 -227 -222 -246 -13 -12 -23 -25 -23 -28 0 -3
-10 -16 -23 -28 -13 -12 -57 -60 -98 -107 -75 -87 -124 -141 -169 -188 -14
-15 -59 -65 -99 -112 -41 -47 -85 -95 -98 -107 -13 -12 -23 -25 -23 -28 0 -3
-10 -16 -23 -28 -13 -12 -62 -66 -109 -119 -47 -53 -95 -107 -107 -119 l-20
-22 31 -45 c95 -138 289 -338 436 -451 176 -133 377 -241 566 -300 268 -86
562 -94 833 -26 418 106 802 399 1052 803 192 309 321 704 365 1112 18 169 18
512 0 692 -34 356 -131 759 -265 1109 -28 73 -66 176 -85 228 -55 154 -241
524 -365 728 l-38 61 35 7 c47 8 111 73 164 165 23 41 50 83 58 93 8 9 13 18
11 20 -2 1 -13 7 -24 13 -16 9 -20 22 -20 66 l0 55 -110 105 -110 105 -26 -19
c-22 -17 -31 -18 -66 -9 -22 6 -52 20 -66 32 -33 25 -43 20 -121 -60 l-60 -60
-33 49 c-37 55 -43 99 -15 107 10 2 31 29 46 60 25 52 26 57 11 80 -9 13 -23
27 -31 30 -8 3 -14 16 -14 30 0 20 4 24 18 18 29 -12 99 -18 135 -11 28 5 38
14 52 47 31 68 87 98 116 63 12 -14 14 -14 26 2 7 10 13 26 13 36 0 11 7 18
19 18 17 0 19 -5 14 -34 -4 -28 0 -38 30 -68 22 -23 52 -39 83 -47 l49 -12 37
40 38 40 32 -29 c18 -17 36 -30 40 -30 4 0 6 -6 4 -12 -1 -7 -1 -10 1 -5 3 4
20 7 38 7 25 0 40 8 63 35 57 64 50 133 -17 187 l-29 23 19 145 c10 80 19 199
20 265 1 66 4 105 6 86 3 -19 11 -40 19 -48 13 -13 18 -10 15 10 -3 19 10 4
23 -26 14 -36 59 -77 83 -77 8 0 12 -4 9 -8 -2 -4 12 -7 32 -6 20 2 27 0 15
-2 -26 -6 -31 -24 -7 -24 10 0 14 -6 10 -15 -3 -9 0 -15 9 -15 8 0 30 -15 49
-34 19 -19 36 -33 39 -30 2 2 10 -2 17 -11 7 -8 19 -15 27 -15 8 0 12 -4 8 -9
-3 -5 -1 -12 5 -16 6 -4 8 -11 5 -16 -5 -8 14 -13 36 -11 4 1 4 -8 1 -20 -3
-14 -1 -19 6 -14 7 4 12 2 12 -3 0 -14 77 -91 90 -91 6 0 10 -6 10 -14 0 -7 7
-19 15 -26 12 -10 13 -7 5 21 -16 54 -40 194 -64 378 -17 128 -28 176 -39 182
-8 5 -37 26 -64 47 -26 21 -135 80 -240 132 -159 78 -194 99 -199 120 -4 14
-22 60 -40 102 -31 75 -32 78 -14 100 9 13 27 42 39 66 20 39 20 44 6 66 l-16
24 48 -14 c50 -15 265 -58 346 -70 31 -4 47 -3 47 5 0 6 -14 54 -31 107 -89
278 -221 461 -432 599 -85 55 -241 133 -340 170 -27 10 -56 30 -68 47 -11 15
-30 33 -42 39 -19 9 -18 7 3 -10 40 -32 19 -32 -69 -1 -46 17 -91 30 -100 30
-20 0 -153 51 -236 90 -33 15 -81 35 -108 44 -99 33 -273 135 -371 218 -35 29
-38 30 -26 8 22 -41 114 -384 108 -402 -2 -6 -24 14 -48 43 -25 30 -49 56 -54
58 -5 2 -17 12 -28 23 -19 19 -20 19 -25 -1 -4 -17 -9 -19 -24 -10 -14 7 -18
16 -13 33 3 13 1 27 -5 30 -6 4 -11 -1 -11 -11 0 -20 -38 -172 -107 -431 l-46
-173 -18 30 c-26 43 -89 104 -123 119 -24 11 -31 10 -47 -4 -35 -31 -30 -7 17
97 80 180 83 183 103 165 10 -9 24 -16 33 -16 25 0 65 38 71 66 4 22 -1 30
-30 46 -40 24 -40 25 22 118 25 37 45 72 45 77 0 5 -11 15 -25 21 -14 6 -25
15 -25 19 0 7 52 42 148 100 13 8 22 17 19 19 -7 7 -219 -26 -240 -38 -14 -7
-31 -7 -56 0 -20 6 -87 12 -149 13 -62 1 -114 5 -117 9 -2 4 22 15 55 26 45
14 56 21 48 31 -6 7 -8 13 -4 13 3 0 48 7 98 16 51 9 145 19 208 23 l115 6
-55 30 c-46 25 -55 35 -58 60 -3 27 -14 38 -85 82 -45 28 -124 72 -174 97 -94
47 -124 68 -55 39 40 -17 134 -62 195 -94 21 -11 41 -18 44 -16 2 3 -24 19
-59 37 -35 17 -76 43 -93 57 -27 23 -24 23 30 -7 72 -39 223 -139 232 -153 4
-6 -7 -2 -23 9 -40 28 -54 36 -54 30 0 -5 88 -66 96 -66 3 0 2 6 -2 13 -4 6 5
1 19 -12 28 -26 38 -42 12 -21 -31 26 -13 -8 21 -39 36 -34 60 -36 31 -3 -10
10 -17 24 -17 31 0 6 -9 28 -19 49 -24 47 -105 291 -99 298 3 2 11 -16 18 -41
9 -31 18 -45 30 -45 17 0 30 -41 30 -100 0 -14 10 -34 22 -44 20 -18 21 -18
14 0 -15 37 -65 241 -80 324 -26 146 -35 226 -61 515 -24 267 -43 428 -66 560
-15 88 -16 91 -37 64 -31 -40 -93 -159 -112 -212 l-18 -51 -52 105 c-77 153
-173 291 -279 399 -51 52 -88 87 -81 78z m-698 -1273 l57 -29 -19 -26 -18 -26
29 -16 c22 -13 29 -24 29 -48 0 -37 6 -38 51 0 36 29 37 29 54 9 14 -15 16
-22 7 -31 -7 -7 -12 -21 -12 -32 0 -12 -7 -30 -15 -40 -14 -18 -18 -17 -101
35 -47 30 -102 69 -122 87 -21 19 -43 37 -50 41 -10 6 -11 13 -1 33 10 23 8
31 -20 72 l-32 46 53 -23 c29 -14 79 -37 110 -52z m1365 -257 c-3 -8 -6 -5 -6
6 -1 11 2 17 5 13 3 -3 4 -12 1 -19z m-2363 -893 c-19 -29 -20 -29 -30 -12 -4
6 -4 9 1 5 5 -5 14 1 22 12 20 29 26 25 7 -5z m2508 -32 c10 -9 18 -30 18 -48
0 -73 -55 -340 -144 -705 -20 -80 -36 -153 -36 -162 0 -9 -5 -20 -12 -24 -6
-4 -8 -3 -5 3 4 6 -4 18 -18 27 -25 16 -25 16 -25 -12 0 -16 -5 -29 -13 -29
-25 0 -9 104 52 331 33 126 82 321 108 433 26 111 49 203 52 203 2 0 13 -7 23
-17z m-228 -650 c-13 -43 -31 -104 -40 -135 l-16 -57 -29 14 c-35 19 -70 19
-112 1 -33 -13 -33 -13 -55 25 -12 21 -36 46 -52 54 l-29 15 21 52 c30 73 34
77 64 45 21 -23 33 -27 81 -27 63 0 125 25 163 65 13 14 25 25 26 25 1 0 -8
-35 -22 -77z m-41 -338 c-3 -9 -8 -14 -10 -11 -3 3 -2 9 2 15 9 16 15 13 8 -4z
m1864 -632 c-3 -10 -5 -4 -5 12 0 17 2 24 5 18 2 -7 2 -21 0 -30z m-4197 -187
c0 -16 -7 -26 -21 -29 -19 -5 -21 -11 -15 -45 5 -34 3 -40 -14 -45 -14 -4 -18
-10 -13 -22 6 -17 7 -17 20 1 7 10 13 13 13 8 0 -20 -49 -57 -65 -50 -25 9
-10 60 41 139 24 37 46 67 49 67 3 0 5 -11 5 -24z m2056 -257 c24 -8 56 -57
182 -270 138 -232 153 -262 145 -286 -8 -22 -18 -29 -48 -34 -83 -14 -111 -98
-55 -163 34 -38 32 -55 -7 -73 -25 -12 -30 -10 -82 40 -71 68 -135 111 -218
149 -77 34 -200 68 -252 68 -66 0 -66 7 -10 121 29 57 73 151 100 209 43 96
51 107 92 130 56 32 85 57 103 92 17 32 13 31 50 17z m1869 -39 c-10 -16 32
-53 51 -46 14 5 15 4 4 -9 -12 -14 -15 -14 -30 0 -9 8 -22 15 -28 15 -18 0
-25 20 -12 35 14 17 24 20 15 5z m-1487 -581 c19 -30 11 -32 -11 -3 -10 13
-14 24 -10 24 5 0 14 -9 21 -21z"/>
<path d="M21310 10280 c0 -5 14 -7 33 -3 45 8 47 13 4 13 -20 0 -37 -4 -37
-10z"/>
<path d="M19670 11136 c20 -13 56 -30 80 -39 57 -18 138 -31 125 -19 -10 9
-217 82 -232 82 -4 0 8 -11 27 -24z"/>
<path d="M24685 10863 c-55 -7 -57 -10 -39 -45 25 -50 44 -67 79 -74 46 -8
119 26 145 68 33 55 30 58 -67 57 -49 -1 -101 -4 -118 -6z"/>
<path d="M24465 10810 c-120 -41 -263 -133 -404 -259 -62 -55 -390 -406 -484
-518 -26 -30 -32 -32 -66 -27 -55 9 -98 -17 -122 -72 -11 -24 -17 -53 -14 -64
7 -23 -23 -52 -131 -127 -41 -28 -71 -53 -67 -56 4 -3 23 -8 42 -12 19 -4 41
-13 48 -21 7 -7 39 -20 71 -29 61 -18 182 -66 297 -119 39 -18 154 -83 257
-144 248 -148 440 -242 541 -267 22 -6 26 -4 21 9 -3 8 1 22 9 30 8 9 25 31
37 51 12 19 26 35 31 35 5 0 9 5 9 11 0 5 16 31 35 56 19 25 33 49 30 53 -2 4
75 10 173 13 187 6 315 27 444 72 l68 23 38 -56 c21 -31 44 -58 51 -60 8 -3
11 0 7 7 -4 6 -3 11 3 11 5 0 20 17 32 38 13 20 27 38 31 40 4 2 17 19 28 38
12 19 26 32 31 29 5 -4 6 0 3 8 -3 8 0 18 7 23 8 4 10 3 5 -4 -15 -24 2 -11
19 15 17 25 17 26 -1 19 -22 -8 -21 -7 69 64 37 29 67 56 67 60 0 6 -161 100
-173 100 -3 0 -40 20 -82 45 -42 25 -112 63 -156 85 -43 22 -79 44 -79 49 0 5
7 27 15 50 8 23 17 74 21 114 6 64 4 79 -16 116 -12 24 -42 65 -66 91 l-44 47
16 39 c13 31 14 45 5 76 -25 83 -120 148 -195 134 -70 -13 -118 -106 -86 -165
8 -16 3 -20 -50 -30 -129 -26 -271 -126 -319 -225 -12 -23 -24 -63 -27 -89
l-7 -47 -56 -16 c-31 -9 -62 -19 -70 -22 -8 -3 5 23 28 57 95 139 181 371 181
486 0 35 5 46 25 59 33 22 33 71 1 119 -14 20 -26 44 -28 55 -3 19 -4 19 -53
2z m-1045 -914 c0 -2 -8 -10 -17 -17 -16 -13 -17 -12 -4 4 13 16 21 21 21 13z"/>
<path d="M25263 10775 c5 -34 3 -45 -7 -45 -7 0 -25 -9 -39 -20 -77 -61 -35
-210 58 -210 33 0 95 23 95 36 0 2 -9 0 -19 -6 -11 -5 -21 -10 -24 -10 -10 0
-5 83 8 120 19 53 18 60 0 36 -17 -22 -20 -10 -6 26 4 13 11 37 15 53 7 28 7
29 -8 10 -15 -20 -15 -20 -9 3 3 14 13 22 27 23 18 1 -65 28 -88 29 -5 0 -6
-20 -3 -45z"/>
<path d="M22675 9850 c3 -5 11 -10 16 -10 6 0 7 5 4 10 -3 6 -11 10 -16 10 -6
0 -7 -4 -4 -10z"/>
<path d="M29175 9841 c-68 -42 -98 -107 -81 -175 6 -25 7 -25 39 -12 17 8 85
33 149 57 72 27 118 49 118 58 0 7 -17 31 -39 52 -36 36 -42 39 -97 39 -40 0
-69 -6 -89 -19z"/>
<path d="M20420 9656 c0 -2 8 -10 18 -17 15 -13 16 -12 3 4 -13 16 -21 21 -21
13z"/>
<path d="M22911 9594 c0 -11 3 -14 6 -6 3 7 2 16 -1 19 -3 4 -6 -2 -5 -13z"/>
<path d="M23736 9234 c-9 -24 -7 -31 5 -12 5 10 17 15 27 12 14 -5 15 -4 2 5
-20 15 -27 14 -34 -5z"/>
<path d="M19108 8709 c-100 -106 -123 -135 -107 -137 32 -5 124 43 167 88 45
46 75 113 70 155 -3 27 -10 21 -130 -106z"/>
<path d="M19748 8753 c7 -3 16 -2 19 1 4 3 -2 6 -13 5 -11 0 -14 -3 -6 -6z"/>
<path d="M12089 8534 c-68 -25 -114 -53 -214 -128 -106 -79 -132 -104 -155
-148 -32 -60 -45 -69 -54 -36 -4 16 -1 26 10 33 9 6 26 18 38 28 11 10 -21 -8
-73 -38 -163 -97 -385 -203 -559 -265 -50 -19 -73 -34 -112 -78 -28 -31 -48
-58 -45 -60 6 -6 92 23 232 79 223 88 483 228 678 364 123 86 353 272 344 279
-2 1 -43 -12 -90 -30z"/>
<path d="M10378 7803 c6 -2 18 -2 25 0 6 3 1 5 -13 5 -14 0 -19 -2 -12 -5z"/>
<path d="M10313 7793 c9 -2 25 -2 35 0 9 3 1 5 -18 5 -19 0 -27 -2 -17 -5z"/>
<path d="M10105 7780 c-38 -4 -137 -8 -220 -9 -82 -1 -151 -4 -154 -6 -2 -3
57 -5 132 -5 l137 0 0 -40 0 -41 43 5 c23 3 96 11 162 18 66 7 107 14 92 16
-27 3 -29 6 -23 38 l7 34 -53 -2 c-29 0 -84 -4 -123 -8z"/>
<path d="M10438 7733 c7 -3 16 -2 19 1 4 3 -2 6 -13 5 -11 0 -14 -3 -6 -6z"/>
<path d="M10388 7723 c7 -3 16 -2 19 1 4 3 -2 6 -13 5 -11 0 -14 -3 -6 -6z"/>
<path d="M9868 7683 c23 -2 61 -2 85 0 23 2 4 4 -43 4 -47 0 -66 -2 -42 -4z"/>
<path d="M25257 7235 c-8 -39 -23 -108 -32 -155 -16 -81 -27 -134 -60 -297
-30 -148 -47 -230 -61 -300 -37 -190 -46 -231 -56 -273 -6 -25 -13 -58 -15
-75 -2 -16 -10 -59 -18 -95 -7 -36 -21 -100 -29 -143 -16 -80 -35 -170 -60
-292 -8 -38 -22 -108 -31 -155 -40 -200 -48 -238 -61 -297 -8 -34 -14 -67 -14
-73 0 -28 240 -1 363 41 306 104 533 363 620 709 29 116 31 402 4 530 -67 315
-223 607 -465 870 l-69 74 -16 -69z"/>
<path d="M21667 7033 c-31 -75 -55 -139 -52 -141 10 -10 91 24 123 52 57 50
76 110 51 159 -13 25 -50 67 -59 67 -3 0 -32 -62 -63 -137z"/>
<path d="M24849 6937 c-30 -20 -34 -28 -37 -75 -3 -47 0 -56 27 -82 20 -21 39
-30 61 -30 46 0 66 15 85 63 19 51 10 85 -32 115 -47 33 -67 34 -104 9z"/>
<path d="M21420 6828 c-64 -33 -84 -66 -88 -146 -2 -54 1 -73 17 -99 12 -18
24 -33 29 -33 7 0 112 274 112 293 0 13 -25 7 -70 -15z"/>
<path d="M21570 6808 c0 -7 -23 -71 -52 -141 l-53 -128 -35 5 c-26 4 -30 3
-15 -4 82 -37 238 45 246 130 4 48 -1 69 -27 99 -32 38 -64 58 -64 39z"/>
<path d="M24162 6690 c-18 -11 -41 -34 -51 -52 -20 -31 -20 -32 0 -70 20 -40
86 -94 126 -105 27 -6 65 23 89 69 56 108 -60 221 -164 158z"/>
<path d="M24480 5990 c-27 -27 -25 -56 5 -85 31 -31 35 -31 68 3 27 28 27 29
12 65 -18 43 -52 50 -85 17z"/>
<path d="M15542 5975 c0 -16 2 -22 5 -12 2 9 2 23 0 30 -3 6 -5 -1 -5 -18z"/>
<path d="M17665 5988 c-45 -130 -119 -450 -170 -733 -21 -117 -86 -613 -110
-831 -9 -83 -12 -404 -4 -409 3 -2 22 -2 42 2 33 5 37 9 38 37 l2 31 4 -28 c4
-26 7 -28 31 -22 15 4 43 11 62 15 117 25 539 149 614 180 11 5 91 36 176 69
85 33 180 71 212 85 l56 25 10 -27 c6 -15 14 -37 17 -49 12 -43 21 -23 17 37
-3 35 0 60 5 60 10 0 22 -90 24 -190 l2 -55 7 60 c4 33 9 89 10 125 l1 65 20
-55 c11 -30 24 -67 29 -82 22 -68 31 -64 25 12 -5 69 -5 73 10 55 13 -16 14
-35 9 -107 -4 -51 -3 -88 2 -88 9 0 270 92 354 125 55 22 82 46 229 210 177
197 501 605 501 631 0 4 10 21 23 38 39 51 40 56 17 56 -13 0 -20 -5 -17 -12
11 -30 -13 -48 -63 -48 l-50 0 98 98 c161 161 267 282 321 367 47 74 50 80 30
83 -39 7 -52 -5 -45 -43 l7 -34 -51 -7 c-32 -4 -50 -11 -50 -20 0 -10 -14 -14
-45 -14 -44 0 -50 -5 -46 -37 3 -20 -47 -16 -51 4 -3 16 -4 16 -20 0 -9 -9
-22 -17 -28 -17 -7 0 -9 -7 -6 -15 5 -13 0 -15 -29 -9 -28 5 -35 3 -35 -10 0
-9 -7 -16 -16 -16 -8 0 -13 4 -10 9 3 5 -1 12 -10 15 -12 4 -15 2 -10 -9 4
-12 -4 -15 -39 -15 -35 0 -45 -4 -45 -16 0 -12 -6 -15 -25 -10 -15 4 -25 2
-25 -4 0 -7 -6 -8 -19 0 -30 16 -40 12 -47 -16 -6 -24 -10 -26 -43 -20 -20 3
-46 6 -58 6 -14 0 -23 6 -23 15 0 25 -67 20 -75 -5 -3 -11 -10 -20 -15 -20 -5
0 -6 -8 -3 -17 5 -13 2 -15 -11 -10 -10 4 -29 7 -42 7 -20 0 8 33 164 189 214
214 322 335 322 363 0 17 -7 19 -57 16 -57 -3 -57 -3 -64 -38 -4 -19 -12 -36
-18 -38 -7 -2 -8 -14 -5 -29 l7 -26 -54 6 c-30 4 -73 7 -96 7 -41 0 -43 2 -43
29 0 19 -6 30 -18 33 -15 4 -17 0 -14 -22 2 -15 -3 -33 -11 -42 -8 -8 -16 -23
-19 -34 -2 -13 -13 -20 -36 -22 -17 -2 -32 -7 -32 -13 0 -5 -9 -9 -20 -9 -13
0 -20 7 -20 19 0 13 -10 20 -31 25 -46 9 -52 8 -45 -9 3 -10 -1 -15 -13 -15
-10 0 -38 7 -61 15 -55 19 -53 20 -35 -15 15 -28 14 -30 -3 -30 -11 0 -37 6
-58 13 -55 19 -114 28 -114 16 0 -5 -11 -7 -25 -3 -19 5 -25 2 -25 -11 0 -9
-3 -14 -7 -12 -5 3 -32 12 -62 21 l-53 16 4 -30 c3 -16 0 -26 -5 -23 -5 3 -23
9 -41 13 -17 4 -39 11 -49 15 -13 5 -16 3 -12 -8 5 -11 0 -13 -22 -9 -15 3
-37 11 -48 18 -27 19 -46 18 -38 -2 5 -15 3 -15 -25 0 -17 9 -38 16 -47 16 -8
0 -15 6 -15 13 0 6 -11 12 -25 12 -16 0 -23 -5 -20 -12 6 -17 -16 -16 -42 2
-19 14 -21 13 -27 -15 -4 -21 -10 -28 -21 -24 -11 5 -14 2 -8 -12 4 -12 3 -15
-5 -10 -7 4 -12 15 -12 25 0 12 -9 20 -25 23 -17 4 -25 1 -25 -8 0 -10 -5 -12
-17 -5 -10 5 -52 26 -93 47 -41 20 -86 43 -100 51 -14 7 -33 10 -42 7 -10 -3
-28 2 -40 10 -28 20 -42 20 -34 1 7 -20 -3 -19 -26 2 -15 13 -21 14 -27 5 -6
-10 -17 -8 -46 10 -34 19 -38 20 -32 5 4 -11 3 -16 -3 -12 -6 3 -10 12 -10 19
0 8 -6 19 -14 25 -12 10 -13 8 -9 -8 5 -19 3 -20 -18 -9 -14 7 -38 23 -56 36
-36 25 -42 27 -48 10z m1660 -598 c3 -5 1 -10 -4 -10 -6 0 -11 5 -11 10 0 6 2
10 4 10 3 0 8 -4 11 -10z"/>
<path d="M20923 4235 c0 -44 2 -61 4 -37 2 23 2 59 0 80 -2 20 -4 1 -4 -43z"/>
<path d="M17362 4245 c0 -16 2 -22 5 -12 2 9 2 23 0 30 -3 6 -5 -1 -5 -18z"/>
<path d="M18690 4140 c-18 -12 -2 -12 25 0 13 6 15 9 5 9 -8 0 -22 -4 -30 -9z"/>
<path d="M18290 3604 c-268 -80 -703 -182 -975 -229 l-129 -22 -12 -46 c-7
-26 -8 -47 -4 -47 15 0 366 60 470 81 151 30 502 115 542 132 54 23 265 167
243 166 -11 -1 -72 -16 -135 -35z"/>
<path d="M9502 3010 c-27 -17 -32 -25 -32 -59 0 -74 38 -59 56 21 7 29 11 54
10 55 -1 1 -16 -7 -34 -17z"/>
<path d="M14598 2523 c7 -3 16 -2 19 1 4 3 -2 6 -13 5 -11 0 -14 -3 -6 -6z"/>
<path d="M14718 2493 c7 -3 16 -2 19 1 4 3 -2 6 -13 5 -11 0 -14 -3 -6 -6z"/>
<path d="M14815 2470 c11 -5 27 -9 35 -9 9 0 8 4 -5 9 -11 5 -27 9 -35 9 -9 0
-8 -4 5 -9z"/>
<path d="M14878 2453 c7 -3 16 -2 19 1 4 3 -2 6 -13 5 -11 0 -14 -3 -6 -6z"/>
<path d="M14945 2440 c11 -5 27 -9 35 -9 9 0 8 4 -5 9 -11 5 -27 9 -35 9 -9 0
-8 -4 5 -9z"/>
<path d="M14678 2423 c7 -3 16 -2 19 1 4 3 -2 6 -13 5 -11 0 -14 -3 -6 -6z"/>
<path d="M15013 2423 c9 -2 23 -2 30 0 6 3 -1 5 -18 5 -16 0 -22 -2 -12 -5z"/>
<path d="M15095 2405 c22 -8 54 -13 70 -13 21 0 14 4 -25 13 -69 18 -98 17
-45 0z"/>
<path d="M14775 2400 c11 -5 27 -9 35 -9 9 0 8 4 -5 9 -11 5 -27 9 -35 9 -9 0
-8 -4 5 -9z"/>
<path d="M14838 2383 c7 -3 16 -2 19 1 4 3 -2 6 -13 5 -11 0 -14 -3 -6 -6z"/>
<path d="M15212 2371 c11 -18 11 -23 -2 -32 -11 -8 -6 -9 20 -5 19 3 54 8 78
12 23 4 42 10 42 14 0 4 -19 10 -42 13 -24 4 -58 9 -76 13 -33 7 -34 6 -20
-15z"/>
<path d="M14900 2370 c34 -11 60 -11 35 0 -11 5 -29 8 -40 8 -16 0 -15 -2 5
-8z"/>
<path d="M14968 2353 c7 -3 16 -2 19 1 4 3 -2 6 -13 5 -11 0 -14 -3 -6 -6z"/>
<path d="M15055 2335 c28 -8 68 -14 90 -13 39 1 39 1 -10 8 -27 3 -68 10 -90
13 -35 6 -33 5 10 -8z"/>
<path d="M17675 2260 c-34 -6 -36 -7 -10 -8 17 0 48 3 70 7 33 7 35 9 10 8
-16 0 -48 -3 -70 -7z"/>
<path d="M17578 2243 c12 -2 30 -2 40 0 9 3 -1 5 -23 4 -22 0 -30 -2 -17 -4z"/>
<path d="M17428 2233 c12 -2 30 -2 40 0 9 3 -1 5 -23 4 -22 0 -30 -2 -17 -4z"/>
<path d="M17318 2223 c12 -2 32 -2 45 0 12 2 2 4 -23 4 -25 0 -35 -2 -22 -4z"/>
<path d="M16836 2188 c-7 -18 -12 -34 -11 -36 3 -4 217 58 224 64 2 2 -41 4
-97 4 l-102 0 -14 -32z"/>
<path d="M17690 2180 c-27 -6 -29 -8 -10 -8 14 -1 43 3 65 7 33 7 35 9 10 9
-16 -1 -46 -4 -65 -8z"/>
<path d="M17553 2163 c9 -2 25 -2 35 0 9 3 1 5 -18 5 -19 0 -27 -2 -17 -5z"/>
<path d="M17463 2153 c9 -2 25 -2 35 0 9 3 1 5 -18 5 -19 0 -27 -2 -17 -5z"/>
<path d="M17383 2143 c9 -2 23 -2 30 0 6 3 -1 5 -18 5 -16 0 -22 -2 -12 -5z"/>
</g>
</svg>
